<svg id="Layer_1" height="100" viewBox="0 0 512 512" width="100" xmlns="http://www.w3.org/2000/svg" data-name="Layer 1"><path d="m48 128v257.24c0 15.74 12.29 28.76 28.02 28.76h227.23l80.75-19.84 45-123.16v-143z" fill="#ccd3df"/><path d="m78 385.24v-257.24h-30v257.24c0 15.74 12.29 28.76 28.02 28.76h30c-15.73 0-28.02-13.02-28.02-28.76z" fill="#a7aeb7"/><path d="m464.46 473.37v11.31a11.314 11.314 0 0 1 -11.31 11.32h-138.58a11.322 11.322 0 0 1 -11.32-11.32v-11.31a11.322 11.322 0 0 1 11.32-11.32h138.58a11.314 11.314 0 0 1 11.31 11.32z" fill="#f3ce7d"/><path d="m464.46 439.42v11.32a11.305 11.305 0 0 1 -11.31 11.31h-138.58a11.314 11.314 0 0 1 -11.32-11.31v-11.32a11.314 11.314 0 0 1 11.32-11.31h138.58a11.305 11.305 0 0 1 11.31 11.31z" fill="#edb740"/><path d="m464.46 405.47v11.32a11.314 11.314 0 0 1 -11.31 11.32h-138.58a11.322 11.322 0 0 1 -11.32-11.32v-11.32a11.314 11.314 0 0 1 11.32-11.31h138.58a11.305 11.305 0 0 1 11.31 11.31z" fill="#f3ce7d"/><path d="m438.98 259.02a77.864 77.864 0 1 1 -9.97-8.43 77.755 77.755 0 0 1 9.97 8.43zm.56 55.13a55.685 55.685 0 1 0 -55.68 55.68 55.684 55.684 0 0 0 55.68-55.68z" fill="#edb740"/><path d="m400.53 63h-324.51a27.793 27.793 0 0 0 -28.02 28.13v39.87h381v-39.87a28.167 28.167 0 0 0 -28.47-28.13z" fill="#e87187"/><path d="m383.86 258.46a55.685 55.685 0 1 1 -55.69 55.69 55.684 55.684 0 0 1 55.69-55.69z" fill="#f3ce7d"/><path d="m367.28 172.2a11.475 11.475 0 1 1 -11.46 11.48 11.472 11.472 0 0 1 11.46-11.48z" fill="#6d7486"/><path d="m302.78 172.2a11.475 11.475 0 1 1 -11.47 11.48 11.478 11.478 0 0 1 11.47-11.48z" fill="#6d7486"/><path d="m302.78 225.99a11.475 11.475 0 1 1 -11.47 11.48 11.478 11.478 0 0 1 11.47-11.48z" fill="#6d7486"/><path d="m238.27 172.2a11.475 11.475 0 1 1 -11.46 11.48 11.472 11.472 0 0 1 11.46-11.48z" fill="#6d7486"/><path d="m238.27 225.99a11.475 11.475 0 1 1 -11.46 11.48 11.472 11.472 0 0 1 11.46-11.48z" fill="#6d7486"/><path d="m238.27 279.78a11.475 11.475 0 1 1 -11.46 11.47 11.47 11.47 0 0 1 11.46-11.47z" fill="#6d7486"/><path d="m238.27 333.57a11.475 11.475 0 1 1 -11.46 11.48 11.472 11.472 0 0 1 11.46-11.48z" fill="#6d7486"/><path d="m173.77 172.2a11.475 11.475 0 1 1 -11.47 11.48 11.478 11.478 0 0 1 11.47-11.48z" fill="#6d7486"/><path d="m173.77 225.99a11.475 11.475 0 1 1 -11.47 11.48 11.478 11.478 0 0 1 11.47-11.48z" fill="#6d7486"/><path d="m173.77 333.57a11.475 11.475 0 1 1 -11.47 11.48 11.478 11.478 0 0 1 11.47-11.48z" fill="#6d7486"/><path d="m109.27 225.99a11.475 11.475 0 1 1 -11.47 11.48 11.47 11.47 0 0 1 11.47-11.48z" fill="#6d7486"/><path d="m109.27 279.78a11.475 11.475 0 1 1 -11.47 11.47 11.467 11.467 0 0 1 11.47-11.47z" fill="#6d7486"/><path d="m109.27 333.57a11.475 11.475 0 1 1 -11.47 11.48 11.47 11.47 0 0 1 11.47-11.48z" fill="#6d7486"/><path d="m173.77 279.78a11.475 11.475 0 1 1 -11.47 11.47 11.476 11.476 0 0 1 11.47-11.47z" fill="#6d7486"/><path d="m350 16a23.043 23.043 0 0 0 -23 23.27v50.73h46v-50.73a23.043 23.043 0 0 0 -23-23.27z" fill="#53d8d8"/><path d="m126.5 16a23.47 23.47 0 0 0 -23.5 23.27v50.73h47v-50.73a23.47 23.47 0 0 0 -23.5-23.27z" fill="#53d8d8"/><path d="m103 62.782v.218h-26.98a27.793 27.793 0 0 0 -28.02 28.13v39.87h30v-39.87a28.324 28.324 0 0 1 25-28.348z" fill="#b55d70"/><path d="m358.17 314.15a55.7 55.7 0 0 1 40.688-53.629 55.685 55.685 0 1 0 0 107.248 55.692 55.692 0 0 1 -40.688-53.619z" fill="#ceae6f"/><g fill="#284268"><path d="m322.174 314.147a61.684 61.684 0 1 0 61.684-61.683 61.753 61.753 0 0 0 -61.684 61.683zm111.368 0a49.684 49.684 0 1 1 -49.684-49.683 49.741 49.741 0 0 1 49.684 49.683z"/><path d="m378 281.868v1.911a19.027 19.027 0 0 0 -12.621 17.533 18.54 18.54 0 0 0 18.514 18.55 6.548 6.548 0 0 1 .06 13.095c-.029 0-.062 0-.091 0s-.06 0-.089 0a6.557 6.557 0 0 1 -6.464-6.546 6 6 0 0 0 -6-6 5.94 5.94 0 0 0 -5.929 6 19.027 19.027 0 0 0 12.62 17.535v2.481a6 6 0 0 0 12 0v-2.481a18.9 18.9 0 0 0 12.478-17.535 18.6 18.6 0 0 0 -18.585-18.549 6.549 6.549 0 1 1 6.518-6.55 6 6 0 0 0 6 6 6.06 6.06 0 0 0 6.07-6 18.9 18.9 0 0 0 -12.481-17.533v-1.911a6 6 0 1 0 -12 0z"/><path d="m375 403.383a6 6 0 0 0 -6 6v3.5a6 6 0 0 0 12 0v-3.5a6 6 0 0 0 -6-6z"/><path d="m357 403.383a6 6 0 0 0 -6 6v3.5a6 6 0 0 0 12 0v-3.5a6 6 0 0 0 -6-6z"/><path d="m339 403.383a6 6 0 0 0 -6 6v3.5a6 6 0 0 0 12 0v-3.5a6 6 0 0 0 -6-6z"/><path d="m321 403.383a6 6 0 0 0 -6 6v3.5a6 6 0 0 0 12 0v-3.5a6 6 0 0 0 -6-6z"/><path d="m411 403.383a6 6 0 0 0 -6 6v3.5a6 6 0 0 0 12 0v-3.5a6 6 0 0 0 -6-6z"/><path d="m393 403.383a6 6 0 0 0 -6 6v3.5a6 6 0 0 0 12 0v-3.5a6 6 0 0 0 -6-6z"/><path d="m447 403.383a6 6 0 0 0 -6 6v3.5a6 6 0 0 0 12 0v-3.5a6 6 0 0 0 -6-6z"/><path d="m429 403.383a6 6 0 0 0 -6 6v3.5a6 6 0 0 0 12 0v-3.5a6 6 0 0 0 -6-6z"/><path d="m375 437.33a6 6 0 0 0 -6 6v3.5a6 6 0 0 0 12 0v-3.5a6 6 0 0 0 -6-6z"/><path d="m357 437.33a6 6 0 0 0 -6 6v3.5a6 6 0 0 0 12 0v-3.5a6 6 0 0 0 -6-6z"/><path d="m339 437.33a6 6 0 0 0 -6 6v3.5a6 6 0 0 0 12 0v-3.5a6 6 0 0 0 -6-6z"/><path d="m321 437.33a6 6 0 0 0 -6 6v3.5a6 6 0 0 0 12 0v-3.5a6 6 0 0 0 -6-6z"/><path d="m411 437.33a6 6 0 0 0 -6 6v3.5a6 6 0 0 0 12 0v-3.5a6 6 0 0 0 -6-6z"/><path d="m393 437.33a6 6 0 0 0 -6 6v3.5a6 6 0 0 0 12 0v-3.5a6 6 0 0 0 -6-6z"/><path d="m447 437.33a6 6 0 0 0 -6 6v3.5a6 6 0 0 0 12 0v-3.5a6 6 0 0 0 -6-6z"/><path d="m429 437.33a6 6 0 0 0 -6 6v3.5a6 6 0 0 0 12 0v-3.5a6 6 0 0 0 -6-6z"/><path d="m375 471.277a6 6 0 0 0 -6 6v3.5a6 6 0 0 0 12 0v-3.5a6 6 0 0 0 -6-6z"/><path d="m357 471.277a6 6 0 0 0 -6 6v3.5a6 6 0 0 0 12 0v-3.5a6 6 0 0 0 -6-6z"/><path d="m339 471.277a6 6 0 0 0 -6 6v3.5a6 6 0 0 0 12 0v-3.5a6 6 0 0 0 -6-6z"/><path d="m321 471.277a6 6 0 0 0 -6 6v3.5a6 6 0 0 0 12 0v-3.5a6 6 0 0 0 -6-6z"/><path d="m411 471.277a6 6 0 0 0 -6 6v3.5a6 6 0 0 0 12 0v-3.5a6 6 0 0 0 -6-6z"/><path d="m393 471.277a6 6 0 0 0 -6 6v3.5a6 6 0 0 0 12 0v-3.5a6 6 0 0 0 -6-6z"/><path d="m447 471.277a6 6 0 0 0 -6 6v3.5a6 6 0 0 0 12 0v-3.5a6 6 0 0 0 -6-6z"/><path d="m429 471.277a6 6 0 0 0 -6 6v3.5a6 6 0 0 0 12 0v-3.5a6 6 0 0 0 -6-6z"/><path d="m173.77 166.2a17.475 17.475 0 1 0 17.467 17.476 17.492 17.492 0 0 0 -17.467-17.476zm0 22.95a5.475 5.475 0 1 1 5.467-5.474 5.477 5.477 0 0 1 -5.467 5.474z"/><path d="m238.274 166.2a17.475 17.475 0 1 0 17.467 17.476 17.492 17.492 0 0 0 -17.467-17.476zm0 22.95a5.475 5.475 0 1 1 5.467-5.474 5.477 5.477 0 0 1 -5.467 5.474z"/><path d="m302.779 201.15a17.475 17.475 0 1 0 -17.467-17.474 17.489 17.489 0 0 0 17.467 17.474zm0-22.95a5.475 5.475 0 1 1 -5.467 5.476 5.477 5.477 0 0 1 5.467-5.476z"/><path d="m367.283 201.15a17.475 17.475 0 1 0 -17.467-17.474 17.489 17.489 0 0 0 17.467 17.474zm0-22.95a5.475 5.475 0 1 1 -5.467 5.476 5.477 5.477 0 0 1 5.467-5.476z"/><path d="m109.265 219.99a17.475 17.475 0 1 0 17.467 17.475 17.491 17.491 0 0 0 -17.467-17.475zm0 22.95a5.475 5.475 0 1 1 5.467-5.475 5.477 5.477 0 0 1 -5.467 5.475z"/><path d="m173.77 219.99a17.475 17.475 0 1 0 17.467 17.475 17.491 17.491 0 0 0 -17.467-17.475zm0 22.95a5.475 5.475 0 1 1 5.467-5.475 5.477 5.477 0 0 1 -5.467 5.475z"/><path d="m238.274 219.99a17.475 17.475 0 1 0 17.467 17.475 17.491 17.491 0 0 0 -17.467-17.475zm0 22.95a5.475 5.475 0 1 1 5.467-5.475 5.477 5.477 0 0 1 -5.467 5.475z"/><path d="m320.246 237.465a17.467 17.467 0 1 0 -17.467 17.475 17.49 17.49 0 0 0 17.467-17.475zm-22.934 0a5.467 5.467 0 1 1 5.467 5.475 5.477 5.477 0 0 1 -5.467-5.475z"/><path d="m109.265 273.779a17.475 17.475 0 1 0 17.467 17.476 17.492 17.492 0 0 0 -17.467-17.476zm0 22.95a5.475 5.475 0 1 1 5.467-5.474 5.477 5.477 0 0 1 -5.467 5.474z"/><path d="m173.77 273.779a17.475 17.475 0 1 0 17.467 17.476 17.492 17.492 0 0 0 -17.467-17.476zm0 22.95a5.475 5.475 0 1 1 5.467-5.474 5.477 5.477 0 0 1 -5.467 5.474z"/><path d="m238.274 273.779a17.475 17.475 0 1 0 17.467 17.476 17.492 17.492 0 0 0 -17.467-17.476zm0 22.95a5.475 5.475 0 1 1 5.467-5.474 5.477 5.477 0 0 1 -5.467 5.474z"/><path d="m109.265 327.57a17.476 17.476 0 1 0 17.467 17.475 17.491 17.491 0 0 0 -17.467-17.475zm0 22.951a5.476 5.476 0 1 1 5.467-5.476 5.478 5.478 0 0 1 -5.467 5.476z"/><path d="m173.77 327.57a17.476 17.476 0 1 0 17.467 17.475 17.491 17.491 0 0 0 -17.467-17.475zm0 22.951a5.476 5.476 0 1 1 5.467-5.476 5.478 5.478 0 0 1 -5.467 5.476z"/><path d="m238.274 327.57a17.476 17.476 0 1 0 17.467 17.475 17.491 17.491 0 0 0 -17.467-17.475zm0 22.951a5.476 5.476 0 1 1 5.467-5.476 5.478 5.478 0 0 1 -5.467 5.476z"/><path d="m74 152.169a6 6 0 0 0 -6 6v2.984a6 6 0 0 0 12 0v-2.984a6 6 0 0 0 -6-6z"/><path d="m74 174.463a6 6 0 0 0 -6 6v86.669a6 6 0 0 0 12 0v-86.669a6 6 0 0 0 -6-6z"/><path d="m453.149 388h-28.567a84.322 84.322 0 0 0 10.418-141.112v-155.755a34.206 34.206 0 0 0 -34.469-34.133h-21.531v-17.731a29 29 0 1 0 -58 0v17.731h-165v-17.731a29.5 29.5 0 0 0 -59 0v17.731h-20.981a33.825 33.825 0 0 0 -34.019 34.132v294.107c0 19.018 15 34.761 34.022 34.761h221.278a17.3 17.3 0 0 0 3.937 8.105 17.226 17.226 0 0 0 -4.237 11.316v11.316a17.226 17.226 0 0 0 4.239 11.316 17.223 17.223 0 0 0 -4.239 11.315v11.317a17.551 17.551 0 0 0 17.566 17.315h138.583c9.551 0 16.851-7.768 16.851-17.315v-11.317a17.223 17.223 0 0 0 -4.239-11.315 17.226 17.226 0 0 0 4.239-11.316v-11.316a17.226 17.226 0 0 0 -4.239-11.316 17.223 17.223 0 0 0 4.239-11.315v-11.315c0-9.548-7.3-17.475-16.851-17.475zm-22.462-129.1-1.64 1.6a5.989 5.989 0 1 0 8.454 8.484l1.6-1.677a73.227 73.227 0 0 1 16.911 40.693h-2.3a6 6 0 1 0 0 12h2.3a70.808 70.808 0 0 1 -16.912 40.832l-1.6-1.567a6.01 6.01 0 0 0 -8.485 8.514l1.674 1.607a73.234 73.234 0 0 1 -40.689 16.914v-2.3a6 6 0 0 0 -12 0v2.3a70.786 70.786 0 0 1 -40.829-16.911l1.568-1.6a6.013 6.013 0 0 0 -8.521-8.486l-1.6 1.53a70.8 70.8 0 0 1 -16.918-40.833h2.3a6 6 0 0 0 0-12h-2.3a73.234 73.234 0 0 1 16.912-40.684l1.6 1.64a5.988 5.988 0 1 0 8.488-8.456l-1.532-1.6a70.781 70.781 0 0 1 40.832-16.906v2.3a6 6 0 0 0 12 0v-2.3a73.235 73.235 0 0 1 40.687 16.906zm-97.687-219.631a17 17 0 1 1 34 0v44.731h-34zm-224 0a17.5 17.5 0 0 1 35 0v44.731h-35zm-55 51.861a21.815 21.815 0 0 1 22.022-22.13h20.978v20.858a6.194 6.194 0 0 0 6.083 6.142h46.538a6.457 6.457 0 0 0 6.379-6.142v-20.858h165v20.858a6.062 6.062 0 0 0 5.928 6.142h46.537c3.314 0 5.535-2.828 5.535-6.142v-20.858h21.529a22.193 22.193 0 0 1 22.471 22.132v33.868h-369zm243 314.345v2.525h-220.976c-12.401 0-22.024-10.355-22.024-22.759v-248.241h369v102.248a84.422 84.422 0 0 0 -79.867 148.752h-28.567a17.688 17.688 0 0 0 -17.566 17.475zm161 79.21a5.316 5.316 0 0 1 -5.316 5.315h-138.368a5.316 5.316 0 0 1 -5.316-5.315v-11.37a5.316 5.316 0 0 1 5.316-5.315h138.368a5.316 5.316 0 0 1 5.316 5.315zm0-34a5.316 5.316 0 0 1 -5.316 5.315h-138.368a5.316 5.316 0 0 1 -5.316-5.315v-11.37a5.316 5.316 0 0 1 5.316-5.315h138.368a5.316 5.316 0 0 1 5.316 5.315zm0-34a5.316 5.316 0 0 1 -5.316 5.315h-138.368a5.316 5.316 0 0 1 -5.316-5.316v-11.368a5.316 5.316 0 0 1 5.316-5.316h138.368a5.316 5.316 0 0 1 5.316 5.316z"/></g></svg>