<?xml version="1.0" standalone="no"?>
<!DOCTYPE svg PUBLIC "-//W3C//DTD SVG 20010904//EN"
 "http://www.w3.org/TR/2001/REC-SVG-20010904/DTD/svg10.dtd">
<svg version="1.0" xmlns="http://www.w3.org/2000/svg"
 width="1135.000000pt" height="280.000000pt" viewBox="0 0 1135.000000 280.000000"
 preserveAspectRatio="xMidYMid meet">
<metadata>
Created by potrace 1.16, written by Peter Selinger 2001-2019
</metadata>
<g transform="translate(0.000000,280.000000) scale(0.100000,-0.100000)"
fill="#000000" stroke="none">
<path d="M1035 2251 c-403 -52 -739 -376 -795 -766 -48 -339 75 -655 335 -863
85 -67 130 -94 234 -136 112 -45 206 -59 375 -54 139 4 159 7 246 37 298 104
507 321 597 622 25 86 28 108 28 249 -1 141 -3 164 -29 250 -46 155 -104 255
-212 369 -127 136 -270 222 -439 266 -100 26 -249 37 -340 26z m275 -81 c186
-45 292 -101 416 -219 76 -73 131 -145 172 -227 204 -405 54 -902 -338 -1122
-84 -47 -155 -72 -265 -93 -128 -24 -188 -24 -316 2 -394 79 -677 419 -679
816 -1 298 133 552 380 720 100 68 234 117 365 134 66 8 210 2 265 -11z"/>
<path d="M1066 1945 c-203 -42 -398 -208 -475 -402 -50 -128 -48 -338 4 -478
85 -226 267 -345 529 -345 164 0 280 36 424 133 l62 42 0 67 c0 83 -1 83 -113
28 -97 -48 -177 -64 -271 -57 -233 20 -352 218 -318 535 18 179 77 300 152
317 70 15 224 -43 370 -140 42 -28 79 -45 97 -45 28 0 31 3 37 46 3 26 6 89 6
140 0 107 9 96 -115 139 -66 23 -100 28 -200 31 -78 2 -144 -2 -189 -11z"/>
<path d="M5796 2136 c-143 -54 -149 -214 -10 -282 46 -23 63 -26 110 -21 173
18 235 218 91 293 -41 22 -145 27 -191 10z"/>
<path d="M4987 2130 c-88 -5 -163 -12 -169 -18 -5 -5 -8 -24 -6 -42 3 -29 9
-34 79 -63 116 -48 109 -35 109 -218 0 -88 -3 -159 -6 -159 -3 0 -21 12 -39
26 -44 33 -143 64 -205 64 -133 0 -235 -42 -329 -137 -109 -111 -161 -251
-161 -435 1 -282 141 -471 369 -494 122 -13 235 28 324 118 31 32 57 55 58 51
0 -5 0 -42 -1 -85 -1 -42 2 -78 7 -81 4 -3 89 6 188 19 268 35 245 28 245 73
0 37 -2 40 -49 60 -27 11 -53 21 -58 21 -38 1 -38 -6 -43 662 l-5 643 -75 1
c-41 1 -146 -2 -233 -6z m-24 -593 l37 -16 0 -299 0 -300 -34 -30 c-46 -40
-96 -55 -171 -50 -119 7 -191 94 -216 258 -23 151 5 306 69 380 56 66 93 81
192 77 48 -2 101 -11 123 -20z"/>
<path d="M7946 2025 c-67 -36 -76 -97 -22 -151 30 -30 40 -34 85 -34 42 0 56
5 86 31 33 29 36 36 33 77 -2 35 -9 49 -30 65 -35 26 -114 33 -152 12z"/>
<path d="M6618 1980 c-64 -10 -120 -20 -126 -24 -5 -3 -12 -46 -15 -95 -3 -49
-12 -102 -21 -119 -17 -33 -61 -57 -124 -67 l-43 -7 3 -61 3 -62 78 -3 77 -3
1 -347 c0 -240 4 -357 12 -380 38 -103 197 -173 361 -158 71 7 188 41 257 76
35 18 39 24 39 59 0 24 -5 41 -14 44 -7 3 -47 1 -87 -4 -93 -12 -136 -5 -194
32 -73 47 -75 55 -75 389 l0 290 175 0 175 0 0 -171 0 -170 -60 -26 c-48 -21
-60 -31 -60 -49 0 -22 2 -22 193 -29 105 -3 275 -5 377 -3 l185 3 0 150 0 150
-40 0 -40 0 -13 -60 c-7 -33 -17 -77 -23 -97 l-10 -38 -155 0 -154 0 2 336 3
336 55 22 c46 18 55 26 55 47 l0 24 -218 3 -218 2 3 -27 c2 -22 12 -30 53 -47
28 -11 53 -25 58 -30 4 -6 6 -47 5 -91 l-3 -80 -170 0 -170 0 -3 153 c-1 83
-6 151 -10 151 -4 -1 -59 -10 -124 -19z"/>
<path d="M8720 1755 c-25 -8 -64 -30 -87 -50 -23 -19 -44 -35 -47 -35 -3 0 -6
20 -6 45 l0 45 -57 -6 c-32 -4 -94 -12 -138 -18 -76 -10 -80 -12 -80 -36 0
-18 9 -29 32 -41 66 -33 63 -22 63 -256 l0 -214 -50 -21 c-40 -16 -50 -25 -50
-44 0 -32 18 -35 205 -32 l160 3 3 26 c2 20 -5 30 -35 50 l-38 24 0 205 0 204
33 19 c41 24 120 26 155 3 37 -25 47 -82 47 -265 l0 -160 -25 -18 c-65 -45
-68 -49 -61 -71 7 -22 10 -22 184 -20 l177 3 3 27 c3 23 -2 30 -25 39 -63 24
-63 23 -63 239 0 254 -13 295 -102 341 -51 26 -142 32 -198 14z"/>
<path d="M9462 1760 c-98 -21 -185 -91 -234 -189 -20 -40 -23 -61 -23 -156 0
-100 2 -115 27 -161 92 -174 316 -223 530 -115 67 33 73 39 76 70 2 18 0 37
-5 42 -4 4 -39 -3 -78 -16 -120 -42 -244 -28 -307 32 -28 27 -45 66 -50 118
l-3 30 220 5 220 5 3 60 c5 88 -14 142 -68 196 -70 70 -197 102 -308 79z m143
-110 c13 -12 28 -41 34 -65 20 -79 26 -75 -114 -75 l-125 0 0 24 c0 53 40 117
85 137 31 14 95 3 120 -21z"/>
<path d="M7910 1731 c-94 -6 -95 -6 -98 -32 -3 -24 3 -29 43 -45 77 -29 75
-22 75 -243 0 -143 -3 -202 -12 -213 -7 -8 -35 -24 -61 -33 -42 -16 -48 -21
-45 -44 l3 -26 185 -3 c214 -3 230 -1 230 32 0 19 -10 27 -52 43 l-53 20 -5
274 -5 274 -55 1 c-30 0 -98 -2 -150 -5z"/>
<path d="M2760 1711 c-74 -24 -150 -84 -201 -158 -17 -24 -34 -43 -39 -43 -6
0 -10 44 -10 101 l0 101 -72 -7 c-253 -24 -361 -40 -372 -57 -21 -34 4 -68 69
-94 100 -40 95 -18 95 -394 0 -372 7 -343 -92 -380 l-58 -21 0 -45 0 -44 315
0 315 0 0 44 0 43 -80 23 c-44 12 -84 28 -90 35 -7 8 -11 114 -11 295 l0 283
28 30 c35 37 81 57 131 57 49 0 82 -25 107 -79 l18 -41 99 0 99 0 -3 158 -3
157 -39 19 c-43 21 -164 31 -206 17z"/>
<path d="M3503 1705 c-91 -20 -192 -77 -256 -144 -98 -103 -147 -232 -147
-388 0 -301 182 -496 484 -519 135 -11 322 38 456 119 l55 33 3 57 c3 57 3 57
-25 57 -15 0 -47 -9 -71 -20 -106 -48 -296 -62 -404 -30 -53 15 -118 68 -150
120 -26 43 -54 163 -42 181 3 5 161 9 350 9 l346 0 -4 118 c-3 104 -6 124 -32
179 -85 184 -322 280 -563 228z m214 -151 c15 -11 35 -36 45 -56 20 -38 42
-153 34 -175 -4 -10 -46 -13 -196 -13 l-190 0 0 33 c0 87 59 194 124 223 45
21 148 14 183 -12z"/>
<path d="M5820 1668 c-85 -4 -177 -12 -205 -16 -49 -7 -50 -8 -50 -42 0 -32 4
-37 50 -58 28 -12 66 -30 85 -40 l35 -17 3 -331 c2 -283 0 -333 -13 -344 -8
-6 -47 -24 -87 -39 l-73 -27 0 -39 0 -40 325 0 325 0 0 40 0 39 -73 27 c-40
15 -79 32 -87 39 -12 10 -15 78 -17 434 l-3 421 -30 1 c-16 1 -100 -3 -185 -8z"/>
<path d="M7138 994 c21 -14 22 -23 22 -134 0 -111 -1 -120 -22 -134 -22 -15
-20 -16 32 -16 52 0 54 1 32 16 -20 14 -22 23 -22 125 0 88 3 109 14 109 8 0
20 -17 26 -37 46 -149 74 -213 91 -213 11 0 19 1 19 3 0 1 14 40 31 87 16 47
35 102 41 123 6 20 17 37 25 37 21 0 8 -220 -15 -237 -13 -11 -4 -13 51 -13
l67 0 -20 20 c-18 18 -20 33 -20 130 0 98 2 112 20 130 l21 21 -63 -3 -62 -3
-34 -102 c-19 -57 -40 -103 -46 -103 -6 0 -19 26 -28 58 -10 32 -26 80 -37
105 l-20 47 -63 0 c-59 0 -61 -1 -40 -16z"/>
<path d="M8773 996 c15 -11 17 -31 17 -138 0 -120 -1 -125 -22 -136 -19 -9 -9
-11 52 -11 62 0 71 2 52 11 -21 10 -23 17 -20 72 l3 61 38 3 c32 3 39 0 44
-17 9 -37 23 -22 23 24 0 44 -12 60 -24 30 -3 -10 -19 -15 -46 -15 l-41 0 3
53 3 52 57 3 c54 3 59 1 70 -23 16 -35 28 -31 28 10 l0 35 -127 0 c-109 -1
-125 -3 -110 -14z"/>
<path d="M7862 932 c-35 -11 -82 -61 -84 -90 -4 -80 15 -116 69 -132 44 -13
113 4 121 30 4 12 2 13 -9 3 -7 -7 -30 -13 -50 -13 -51 0 -79 35 -79 99 0 47
21 91 43 91 7 0 29 -9 50 -20 l37 -20 0 24 c0 32 -41 44 -98 28z"/>
<path d="M8055 929 c-30 -4 -36 -7 -22 -13 14 -7 17 -22 17 -97 0 -73 -3 -90
-17 -98 -14 -8 0 -10 52 -10 52 0 64 3 48 9 -13 5 -23 13 -24 17 -8 74 -6 121
7 141 17 25 46 29 64 7 22 -27 42 -18 38 18 -4 42 -34 47 -77 12 -22 -19 -32
-23 -35 -13 -3 7 -6 18 -8 23 -2 6 -20 8 -43 4z"/>
<path d="M8323 925 c-64 -27 -85 -128 -38 -183 30 -35 79 -47 134 -32 98 26
109 177 16 216 -42 17 -71 17 -112 -1z m87 -23 c23 -19 37 -83 26 -126 -14
-54 -60 -72 -96 -36 -16 16 -20 33 -20 80 0 47 4 64 20 80 25 25 41 25 70 2z"/>
<path d="M9628 933 c-30 -5 -53 -27 -44 -42 4 -5 23 0 46 12 48 27 73 16 78
-32 3 -30 3 -31 -40 -31 -50 0 -85 -20 -99 -57 -19 -50 36 -95 91 -75 l24 9
-26 6 c-52 13 -48 81 5 95 41 12 47 8 47 -31 0 -71 28 -98 81 -79 l23 9 -22 5
c-20 6 -22 12 -22 91 0 70 -3 87 -19 101 -20 18 -77 27 -123 19z"/>
<path d="M9990 928 l-25 -11 25 -5 c14 -2 31 -9 38 -14 16 -14 17 -159 0 -176
-9 -9 1 -12 48 -12 45 1 55 3 42 11 -15 8 -18 25 -18 94 0 78 -2 85 -26 104
-30 23 -47 25 -84 9z"/>
<path d="M10264 933 c-12 -2 -36 -19 -54 -38 -28 -29 -33 -42 -33 -79 0 -58
23 -92 73 -107 32 -10 46 -9 76 2 21 8 40 21 42 29 4 13 3 13 -11 2 -25 -21
-76 -18 -99 5 -38 38 -33 154 7 169 8 3 33 -3 55 -15 50 -26 50 -26 50 -1 0
31 -45 45 -106 33z"/>
<path d="M10993 933 c-24 -5 -63 -47 -63 -68 0 -7 10 -24 21 -39 l21 -27 -21
-20 c-27 -25 -27 -45 1 -60 l22 -12 -28 -22 c-53 -42 -14 -85 77 -85 88 0 146
41 133 95 -8 30 -27 38 -111 44 -61 5 -70 8 -70 26 0 17 9 21 58 26 75 8 99
29 95 84 -3 37 -1 40 20 37 12 -2 22 2 22 7 0 6 -19 11 -42 11 -24 0 -59 2
-78 4 -19 2 -45 2 -57 -1z"/>
</g>
</svg>
